<?xml version="1.0" standalone="no"?><!DOCTYPE svg PUBLIC "-//W3C//DTD SVG 1.1//EN" "http://www.w3.org/Graphics/SVG/1.1/DTD/svg11.dtd"><svg t="1732157301183" class="icon" viewBox="0 0 1250 1024" version="1.1" xmlns="http://www.w3.org/2000/svg" p-id="8059" xmlns:xlink="http://www.w3.org/1999/xlink" width="244.140625" height="200"><path d="M848.559375 0H464.5625c-67.2 0-128.003125 60.796875-128.003125 128.003125h-38.396875c-67.2 0-121.6 60.796875-121.6 127.996875v640.001562c0 67.2 60.796875 127.996875 128.003125 127.996875h479.998438c67.2 0 127.996875-60.796875 127.996875-127.996875h32.001562c67.198437 0 128.001563-60.803125 128.001563-128.001562V256L848.559375 0z m-63.995313 959.996875H304.565625c-32.001563 0-64.001562-31.99375-64.001562-63.995313V256c0-32.001563 28.796875-64.001562 60.796875-64.001562h35.198437V768c0 67.198437 60.803125 128.001563 128.003125 128.001563h383.996875c0 32.001563-31.99375 63.995313-63.995312 63.995312zM1008.5625 768c0 32-32 64-64 64h-480c-32 0-64.001562-32-64.001562-64V128.003125c0-32.001563 32.001563-64.001562 64.001562-64.001562h320.001563v127.996875c0 67.2 60.796875 128.003125 127.996875 128.003125h96.001562V768z m-96.001562-512c-35.198438 0-64.001562-60.796875-64.001563-96.003125V64.001563L1008.5625 256h-96.001562z m-64.001563 191.998437H560.565625c-19.201562 0-32.001563 12.798438-32.001562 32s12.8 32.001563 32.001562 32.001563h287.99375c19.201562 0 32.001563-12.8 32.001563-32.001562 0-15.996875-12.8-32-32.001563-32z m0 160.003126H560.565625c-19.201562 0-32.001563 12.8-32.001562 32.001562 0 19.195313 12.8 31.99375 32.001562 31.99375h287.99375c19.201562 0 32.001563-12.798438 32.001563-31.99375 0-16.004687-12.8-32.001563-32.001563-32.001562z m0 0" p-id="8060" fill="#ffffff"></path></svg>