<?xml version="1.0" standalone="no"?><!DOCTYPE svg PUBLIC "-//W3C//DTD SVG 1.1//EN" "http://www.w3.org/Graphics/SVG/1.1/DTD/svg11.dtd"><svg t="1732157396938" class="icon" viewBox="0 0 1024 1024" version="1.1" xmlns="http://www.w3.org/2000/svg" p-id="10060" xmlns:xlink="http://www.w3.org/1999/xlink" width="200" height="200"><path d="M803.18 186H220.82a55.49 55.49 0 0 0-55.43 55.43v507.69A89 89 0 0 0 254.25 838h515.5a89 89 0 0 0 88.86-88.86V241.45A55.49 55.49 0 0 0 803.18 186z m-582.36 44h582.36a11.44 11.44 0 0 1 11.43 11.43v77H209.39v-77A11.44 11.44 0 0 1 220.82 230z m548.93 564h-515.5a44.91 44.91 0 0 1-44.86-44.86V362.5h605.22v386.62A44.91 44.91 0 0 1 769.75 794z" p-id="10061" fill="#ffffff"></path><path d="M665.68 476.37L550.94 576.69l-67.14-67.14a22 22 0 0 0-30.78-0.32L328.61 628.52a22 22 0 1 0 30.45 31.76L467.93 555.9l66.45 66.45a22 22 0 0 0 30 1l130.26-113.86a22 22 0 0 0-29-33.12z" p-id="10062" fill="#ffffff"></path></svg>